# File created by Blade
# Date/Time:  Tue Jan 27 18:12:42 2015
# Frame Rate: 120.000 fps
#------------------------------------------------------
:FULLY-SPECIFIED
:DEGREES
2104
root -1.287459 31.786593 -6.507999 6.060312 6.094982 3.306903
Spine -8.498433 -7.680202 -1.824894
Head 15.636600 -38.678348 -4.620916
LeftShoulder -12.336227 18.165659 3.834983
LeftArm 25.805146 40.454059 -68.032308
LeftForeArm -2.813406 -0.000000 15.713992
LeftHand -10.616894 -0.000000 -4.821247
LeftHandThumb1 -26.253704 0.000000 33.147579
RightShoulder -2.417691 15.334761 -10.780947
RightArm 16.912050 62.013436 85.572733
RightForeArm 32.862287 -0.000000 110.900617
RightHand -10.398426 0.000000 -12.606468
RightHandThumb1 -24.326973 -0.000000 -32.862282
LeftUpLeg -1.854927 -0.668854 -1.419968
LeftLeg 1.781552 -0.000000 -0.000000
LeftFoot -19.336063 16.935632 -24.810123
LeftToeBase 8.718565 -0.000000 -0.000000
RightUpLeg 0.964419 -4.026792 -4.093177
RightLeg -3.278261 -0.000000 0.000000
RightFoot -15.695967 -12.991517 9.757662
RightToeBase 5.126138 -0.000000 -0.000000
2105
root -1.286578 31.786804 -6.505004 6.056788 6.078667 3.309419
Spine -8.517618 -7.722329 -1.820941
Head 15.739123 -38.683071 -4.626665
LeftShoulder -12.359120 18.149032 3.807786
LeftArm 25.851726 40.446728 -67.940997
LeftForeArm -2.718745 0.000000 15.768742
LeftHand -10.527869 -0.000000 -4.823987
LeftHandThumb1 -26.253704 0.000000 33.147579
RightShoulder -2.448507 15.369354 -10.840325
RightArm 16.823878 62.090797 85.436938
RightForeArm 32.784236 -0.000000 110.969313
RightHand -10.619528 -0.000000 -12.720148
RightHandThumb1 -24.326973 -0.000000 -32.862282
LeftUpLeg -1.844266 -0.668852 -1.424500
LeftLeg 1.783889 -0.000000 -0.000000
LeftFoot -19.352464 16.938249 -24.838290
LeftToeBase 8.707874 -0.000000 -0.000000
RightUpLeg 0.965926 -4.037687 -4.096151
RightLeg -3.269577 -0.000000 0.000000
RightFoot -15.689658 -12.969355 9.760457
RightToeBase 5.066801 -0.000000 -0.000000
2106
root -1.286282 31.786708 -6.502450 6.052696 6.075726 3.305887
Spine -8.536920 -7.757981 -1.821896
Head 15.858510 -38.728944 -4.618664
LeftShoulder -12.364143 18.134389 3.804600
LeftArm 25.893865 40.446244 -67.876632
LeftForeArm -2.694924 -0.000000 15.806889
LeftHand -10.448922 -0.000000 -4.757954
LeftHandThumb1 -26.253704 0.000000 33.147579
RightShoulder -2.489799 15.346158 -10.877489
RightArm 16.807282 62.182682 85.334401
RightForeArm 32.919122 0.000000 110.993334
RightHand -10.640808 -0.000000 -12.474881
RightHandThumb1 -24.326973 -0.000000 -32.862282
LeftUpLeg -1.830621 -0.667924 -1.422118
LeftLeg 1.775545 -0.000000 -0.000000
LeftFoot -19.356939 16.946274 -24.836631
LeftToeBase 8.680199 -0.000000 -0.000000
RightUpLeg 0.975480 -4.042557 -4.092310
RightLeg -3.275468 -0.000000 0.000000
RightFoot -15.681165 -12.970994 9.753322
RightToeBase 5.115296 -0.000000 -0.000000
2107
root -1.286074 31.786287 -6.499691 6.050894 6.077312 3.302996
Spine -8.556115 -7.795641 -1.821277
Head 15.970328 -38.771624 -4.621343
LeftShoulder -12.373165 18.126254 3.795956
LeftArm 25.940900 40.445943 -67.800856
LeftForeArm -2.657347 -0.000000 15.885178
LeftHand -10.547336 -0.000000 -4.692079
LeftHandThumb1 -26.253704 0.000000 33.147579
RightShoulder -2.535194 15.334669 -10.930172
RightArm 16.675288 62.191476 85.104843
RightForeArm 32.944685 -0.000000 110.999424
RightHand -10.582960 -0.000000 -12.432184
RightHandThumb1 -24.326973 -0.000000 -32.862282
LeftUpLeg -1.821272 -0.656091 -1.419050
LeftLeg 1.768938 -0.000000 -0.000000
LeftFoot -19.369605 16.923057 -24.863738
LeftToeBase 8.708784 -0.000000 -0.000000
RightUpLeg 0.975829 -4.053477 -4.088381
RightLeg -3.260389 -0.000000 0.000000
RightFoot -15.700540 -12.964834 9.747532
RightToeBase 5.053958 -0.000000 -0.000000
2108
root -1.286520 31.786210 -6.498005 6.053515 6.099521 3.301174
Spine -8.575178 -7.845952 -1.823304
Head 16.078417 -38.846659 -4.618612
LeftShoulder -12.380191 18.114906 3.784934
LeftArm 25.990550 40.443047 -67.725422
LeftForeArm -2.574074 -0.000000 15.939440
LeftHand -10.523934 -0.000000 -5.079888
LeftHandThumb1 -26.253704 0.000000 33.147579
RightShoulder -2.581349 15.302156 -10.976151
RightArm 16.490654 62.146255 84.794110
RightForeArm 32.822955 -0.000000 111.013321
RightHand -10.633927 -0.000000 -12.491287
RightHandThumb1 -24.326973 -0.000000 -32.862282
LeftUpLeg -1.819076 -0.652379 -1.415545
LeftLeg 1.761026 -0.000000 -0.000000
LeftFoot -19.346554 16.919559 -24.813329
LeftToeBase 8.699036 -0.000000 -0.000000
RightUpLeg 0.979342 -4.045538 -4.083700
RightLeg -3.258417 -0.000000 0.000000
RightFoot -15.703032 -12.997013 9.748026
RightToeBase 5.066874 -0.000000 -0.000000
2109
root -1.286248 31.786071 -6.495684 6.053752 6.124065 3.300817
Spine -8.590607 -7.903605 -1.832140
Head 16.177283 -38.907063 -4.598339
LeftShoulder -12.396695 18.094844 3.778391
LeftArm 26.061499 40.484012 -67.631578
LeftForeArm -2.610206 -0.000000 15.982513
LeftHand -10.539119 -0.000000 -5.109581
LeftHandThumb1 -26.253704 0.000000 33.147579
RightShoulder -2.620731 15.267323 -11.025348
RightArm 16.171661 62.035941 84.340219
RightForeArm 32.782560 -0.000000 111.009015
RightHand -10.564452 -0.000000 -12.521101
RightHandThumb1 -24.326973 -0.000000 -32.862282
LeftUpLeg -1.812104 -0.656035 -1.412499
LeftLeg 1.748471 -0.000000 -0.000000
LeftFoot -19.342045 16.895326 -24.841863
LeftToeBase 8.724934 -0.000000 -0.000000
RightUpLeg 0.983604 -4.075121 -4.080465
RightLeg -3.249511 -0.000000 0.000000
RightFoot -15.715799 -12.998159 9.740133
RightToeBase 5.067722 -0.000000 -0.000000
2110
root -1.286038 31.785951 -6.493355 6.055779 6.155908 3.300171
Spine -8.600269 -7.948111 -1.852776
Head 16.260290 -38.996724 -4.542368
LeftShoulder -12.409176 18.103971 3.775309
LeftArm 26.163429 40.476448 -67.538783
LeftForeArm -2.644580 -0.000000 16.031944
LeftHand -10.562011 0.000000 -4.650520
LeftHandThumb1 -26.253704 0.000000 33.147579
RightShoulder -2.647848 15.275560 -11.053498
RightArm 15.665714 61.942793 83.659817
RightForeArm 32.674990 0.000000 111.021218
RightHand -10.718464 -0.000000 -12.454906
RightHandThumb1 -24.326973 -0.000000 -32.862282
LeftUpLeg -1.807228 -0.656118 -1.410391
LeftLeg 1.737389 -0.000000 -0.000000
LeftFoot -19.329565 16.879200 -24.821475
LeftToeBase 8.720239 -0.000000 -0.000000
RightUpLeg 0.990864 -4.062624 -4.078755
RightLeg -3.247606 -0.000000 0.000000
RightFoot -15.726088 -13.020916 9.760512
RightToeBase 5.039001 -0.000000 -0.000000
2111
root -1.285180 31.785915 -6.490641 6.052370 6.190912 3.302270
Spine -8.605885 -7.989346 -1.868865
Head 16.348689 -39.100810 -4.522084
LeftShoulder -12.419901 18.095853 3.767760
LeftArm 26.229701 40.464585 -67.474529
LeftForeArm -2.609818 0.000000 16.079170
LeftHand -10.593729 -0.000000 -4.615657
LeftHandThumb1 -26.253704 0.000000 33.147579
RightShoulder -2.703993 15.149598 -11.108506
RightArm 15.460882 61.827976 83.286840
RightForeArm 32.681038 0.000000 110.995141
RightHand -10.710751 -0.000000 -12.278131
RightHandThumb1 -24.326973 -0.000000 -32.862282
LeftUpLeg -1.790262 -0.671629 -1.410426
LeftLeg 1.709993 -0.000000 -0.000000
LeftFoot -19.306498 16.874546 -24.801390
LeftToeBase 8.715807 -0.000000 -0.000000
RightUpLeg 1.001959 -4.042603 -4.079658
RightLeg -3.237676 -0.000000 0.000000
RightFoot -15.749481 -13.073144 9.772291
RightToeBase 5.119466 -0.000000 -0.000000
2112
root -1.284835 31.785812 -6.489111 6.053837 6.238848 3.307173
Spine -8.612565 -8.055838 -1.886121
Head 16.436593 -39.202703 -4.503858
LeftShoulder -12.443810 18.109170 3.749731
LeftArm 26.316553 40.451347 -67.393023
LeftForeArm -2.647378 0.000000 16.123070
LeftHand -10.532343 -0.000000 -4.521264
LeftHandThumb1 -26.253704 0.000000 33.147579
RightShoulder -2.737131 15.090269 -11.155492
RightArm 14.919292 61.632631 82.541302
RightForeArm 32.642423 0.000000 110.968051
RightHand -10.680341 -0.000000 -12.244231
RightHandThumb1 -24.326973 -0.000000 -32.862282
LeftUpLeg -1.792854 -0.664408 -1.412123
LeftLeg 1.709149 -0.000000 -0.000000
LeftFoot -19.278074 16.838973 -24.769692
LeftToeBase 8.696320 -0.000000 -0.000000
RightUpLeg 1.002822 -4.060185 -4.082655
RightLeg -3.215815 -0.000000 0.000000
RightFoot -15.766760 -13.052126 9.888153
RightToeBase 4.965900 -0.000000 -0.000000
2113
root -1.285706 31.785970 -6.487431 6.052943 6.286239 3.301761
Spine -8.609233 -8.096810 -1.894259
Head 16.499328 -39.341422 -4.493835
LeftShoulder -12.454316 18.097120 3.727606
LeftArm 26.368743 40.419773 -67.328187
LeftForeArm -2.626483 -0.000000 16.185501
LeftHand -10.499151 -0.000000 -4.491127
LeftHandThumb1 -26.253704 0.000000 33.147579
RightShoulder -2.801077 14.802699 -11.215622
RightArm 14.875565 61.445341 82.257083
RightForeArm 32.350065 -0.000000 110.948737
RightHand -10.766146 -0.000000 -12.183881
RightHandThumb1 -24.326973 -0.000000 -32.862282
LeftUpLeg -1.787984 -0.653882 -1.401160
LeftLeg 1.694737 -0.000000 -0.000000
LeftFoot -19.257169 16.789683 -24.763612
LeftToeBase 8.742725 -0.000000 -0.000000
RightUpLeg 1.008398 -4.025127 -4.070729
RightLeg -3.199280 -0.000000 0.000000
RightFoot -15.800642 -13.157038 9.820925
RightToeBase 5.064100 -0.000000 -0.000000
